<mxfile host="app.diagrams.net" agent="Mozilla/5.0 (Macintosh; Intel Mac OS X 10_15_7) AppleWebKit/537.36 (KHTML, like Gecko) Chrome/132.0.0.0 Safari/537.36" version="26.0.10">
  <diagram name="Page-1" id="LubBqCAFF0eY_6Dfj3jN">
    <mxGraphModel dx="852" dy="689" grid="1" gridSize="10" guides="1" tooltips="1" connect="1" arrows="1" fold="1" page="1" pageScale="1" pageWidth="850" pageHeight="1100" math="0" shadow="0">
      <root>
        <mxCell id="0" />
        <mxCell id="1" parent="0" />
        <mxCell id="bE1gFKcx4u8gwo7U3hTT-1" value="" style="whiteSpace=wrap;html=1;aspect=fixed;" parent="1" vertex="1">
          <mxGeometry x="20" y="20" width="860" height="860" as="geometry" />
        </mxCell>
        <mxCell id="hrwhk7hBxuppIEL_lkO9-1" value="Administrateur&amp;nbsp;&lt;br&gt;sur Application&amp;nbsp;&lt;br&gt;mobile" style="shape=umlActor;verticalLabelPosition=bottom;verticalAlign=top;html=1;outlineConnect=0;" parent="1" vertex="1">
          <mxGeometry x="60" y="400" width="30" height="60" as="geometry" />
        </mxCell>
        <mxCell id="bE1gFKcx4u8gwo7U3hTT-4" value="" style="rounded=0;whiteSpace=wrap;html=1;" parent="1" vertex="1">
          <mxGeometry x="160" y="70" width="510" height="700" as="geometry" />
        </mxCell>
        <mxCell id="bE1gFKcx4u8gwo7U3hTT-5" value="MongoDB" style="shape=umlActor;verticalLabelPosition=bottom;verticalAlign=top;html=1;outlineConnect=0;" parent="1" vertex="1">
          <mxGeometry x="750" y="400" width="30" height="60" as="geometry" />
        </mxCell>
        <mxCell id="bE1gFKcx4u8gwo7U3hTT-11" style="edgeStyle=orthogonalEdgeStyle;rounded=0;orthogonalLoop=1;jettySize=auto;html=1;dashed=1;" parent="1" source="bE1gFKcx4u8gwo7U3hTT-6" target="bE1gFKcx4u8gwo7U3hTT-10" edge="1">
          <mxGeometry relative="1" as="geometry">
            <Array as="points">
              <mxPoint x="390" y="150" />
            </Array>
          </mxGeometry>
        </mxCell>
        <mxCell id="bE1gFKcx4u8gwo7U3hTT-12" value="&lt;font style=&quot;font-size: 16px;&quot;&gt;extends&lt;/font&gt;" style="edgeLabel;html=1;align=center;verticalAlign=middle;resizable=0;points=[];" parent="bE1gFKcx4u8gwo7U3hTT-11" vertex="1" connectable="0">
          <mxGeometry x="-0.55" y="1" relative="1" as="geometry">
            <mxPoint as="offset" />
          </mxGeometry>
        </mxCell>
        <mxCell id="bE1gFKcx4u8gwo7U3hTT-6" value="CU 1: Accéder aux paramètres de compte" style="ellipse;whiteSpace=wrap;html=1;" parent="1" vertex="1">
          <mxGeometry x="280" y="220" width="180" height="80" as="geometry" />
        </mxCell>
        <mxCell id="YEJC2_c8n0acilr_dagX-16" style="edgeStyle=none;curved=1;rounded=0;orthogonalLoop=1;jettySize=auto;html=1;fontSize=12;startSize=8;endSize=8;" parent="1" source="bE1gFKcx4u8gwo7U3hTT-7" edge="1">
          <mxGeometry relative="1" as="geometry">
            <mxPoint x="750" y="430" as="targetPoint" />
          </mxGeometry>
        </mxCell>
        <mxCell id="bE1gFKcx4u8gwo7U3hTT-7" value="CU 2: Consulter la page d&#39;informations sur le protocole OSPAR" style="ellipse;whiteSpace=wrap;html=1;" parent="1" vertex="1">
          <mxGeometry x="280" y="330" width="180" height="80" as="geometry" />
        </mxCell>
        <mxCell id="YEJC2_c8n0acilr_dagX-14" style="edgeStyle=none;curved=1;rounded=0;orthogonalLoop=1;jettySize=auto;html=1;fontSize=12;startSize=8;endSize=8;" parent="1" source="bE1gFKcx4u8gwo7U3hTT-8" edge="1">
          <mxGeometry relative="1" as="geometry">
            <mxPoint x="750" y="430" as="targetPoint" />
          </mxGeometry>
        </mxCell>
        <mxCell id="bE1gFKcx4u8gwo7U3hTT-8" value="CU 3: Réaliser un prélèvement" style="ellipse;whiteSpace=wrap;html=1;" parent="1" vertex="1">
          <mxGeometry x="280" y="450" width="180" height="80" as="geometry" />
        </mxCell>
        <mxCell id="YEJC2_c8n0acilr_dagX-15" style="edgeStyle=none;curved=1;rounded=0;orthogonalLoop=1;jettySize=auto;html=1;fontSize=12;startSize=8;endSize=8;" parent="1" source="bE1gFKcx4u8gwo7U3hTT-9" edge="1">
          <mxGeometry relative="1" as="geometry">
            <mxPoint x="740" y="440" as="targetPoint" />
          </mxGeometry>
        </mxCell>
        <mxCell id="bE1gFKcx4u8gwo7U3hTT-9" value="CU 4: Consulter les statistiques liées aux prélèvements" style="ellipse;whiteSpace=wrap;html=1;" parent="1" vertex="1">
          <mxGeometry x="280" y="570" width="180" height="80" as="geometry" />
        </mxCell>
        <mxCell id="bE1gFKcx4u8gwo7U3hTT-10" value="Créer un compte" style="ellipse;whiteSpace=wrap;html=1;" parent="1" vertex="1">
          <mxGeometry x="490" y="110" width="120" height="80" as="geometry" />
        </mxCell>
        <mxCell id="YEJC2_c8n0acilr_dagX-6" style="edgeStyle=none;curved=1;rounded=0;orthogonalLoop=1;jettySize=auto;html=1;fontSize=12;startSize=8;endSize=8;" parent="1" source="YEJC2_c8n0acilr_dagX-1" target="bE1gFKcx4u8gwo7U3hTT-5" edge="1">
          <mxGeometry relative="1" as="geometry" />
        </mxCell>
        <mxCell id="YEJC2_c8n0acilr_dagX-1" value="CU 5: Consulter le tableau de bord" style="ellipse;whiteSpace=wrap;html=1;" parent="1" vertex="1">
          <mxGeometry x="280" y="680" width="180" height="80" as="geometry" />
        </mxCell>
        <mxCell id="YEJC2_c8n0acilr_dagX-4" style="edgeStyle=none;curved=1;rounded=0;orthogonalLoop=1;jettySize=auto;html=1;entryX=0.029;entryY=0.664;entryDx=0;entryDy=0;entryPerimeter=0;fontSize=12;startSize=8;endSize=8;endArrow=none;startFill=0;" parent="1" source="hrwhk7hBxuppIEL_lkO9-1" target="YEJC2_c8n0acilr_dagX-1" edge="1">
          <mxGeometry relative="1" as="geometry" />
        </mxCell>
        <mxCell id="YEJC2_c8n0acilr_dagX-7" style="edgeStyle=none;curved=1;rounded=0;orthogonalLoop=1;jettySize=auto;html=1;entryX=0.014;entryY=0.613;entryDx=0;entryDy=0;entryPerimeter=0;fontSize=12;startSize=8;endSize=8;endArrow=none;startFill=0;" parent="1" source="hrwhk7hBxuppIEL_lkO9-1" target="bE1gFKcx4u8gwo7U3hTT-9" edge="1">
          <mxGeometry relative="1" as="geometry" />
        </mxCell>
        <mxCell id="YEJC2_c8n0acilr_dagX-9" style="edgeStyle=none;curved=1;rounded=0;orthogonalLoop=1;jettySize=auto;html=1;entryX=0.056;entryY=0.375;entryDx=0;entryDy=0;entryPerimeter=0;fontSize=12;startSize=8;endSize=8;endArrow=none;startFill=0;" parent="1" source="hrwhk7hBxuppIEL_lkO9-1" target="bE1gFKcx4u8gwo7U3hTT-7" edge="1">
          <mxGeometry relative="1" as="geometry" />
        </mxCell>
        <mxCell id="YEJC2_c8n0acilr_dagX-11" style="edgeStyle=none;curved=1;rounded=0;orthogonalLoop=1;jettySize=auto;html=1;entryX=0;entryY=0.5;entryDx=0;entryDy=0;fontSize=12;startSize=8;endSize=8;endArrow=none;startFill=0;" parent="1" source="hrwhk7hBxuppIEL_lkO9-1" target="bE1gFKcx4u8gwo7U3hTT-6" edge="1">
          <mxGeometry relative="1" as="geometry" />
        </mxCell>
        <mxCell id="YEJC2_c8n0acilr_dagX-8" style="edgeStyle=none;curved=1;rounded=0;orthogonalLoop=1;jettySize=auto;html=1;fontSize=12;startSize=8;endSize=8;endArrow=none;startFill=0;" parent="1" source="hrwhk7hBxuppIEL_lkO9-1" target="bE1gFKcx4u8gwo7U3hTT-8" edge="1">
          <mxGeometry relative="1" as="geometry" />
        </mxCell>
      </root>
    </mxGraphModel>
  </diagram>
</mxfile>
